ply
format ascii 1.0
comment PCL generated
element vertex 226
property list uint float x_axis
property list uint float y_axis
property list uint float z_axis
element camera 1
property float view_px
property float view_py
property float view_pz
property float x_axisx
property float x_axisy
property float x_axisz
property float y_axisx
property float y_axisy
property float y_axisz
property float z_axisx
property float z_axisy
property float z_axisz
property float focal
property float scalex
property float scaley
property float centerx
property float centery
property int viewportx
property int viewporty
property float k1
property float k2
end_header
3 0.12161769 0.95929581 -0.25487417 3 0.83563209 -0.23752934 -0.49527681 3 -0.53565699 -0.1527466 -0.83050597
3 0.12161769 0.95929581 -0.25487417 3 0.83563209 -0.23752934 -0.49527681 3 -0.53565699 -0.1527466 -0.83050597
3 0.36092722 0.88107657 -0.30567241 3 -0.80410606 0.46003115 0.37654328 3 0.47238231 0.10988833 0.87451673
3 0.36092722 0.88107657 -0.30567241 3 -0.80410606 0.46003115 0.37654328 3 0.47238231 0.10988833 0.87451673
3 0.25952992 -0.96467257 -0.04529015 3 0.82541037 0.24592084 -0.50815439 3 0.50134027 0.094498537 0.86007446
3 0.25952992 -0.96467257 -0.04529015 3 0.82541037 0.24592084 -0.50815439 3 0.50134027 0.094498537 0.86007446
3 0.81440276 -0.083028845 -0.5743295 3 -0.046443179 -0.99586236 0.078111693 3 -0.57843858 -0.036940698 -0.81488919
3 0.81440276 -0.083028845 -0.5743295 3 -0.046443179 -0.99586236 0.078111693 3 -0.57843858 -0.036940698 -0.81488919
3 -0.16313398 -0.98549491 -0.046767063 3 0.84128517 -0.11418702 -0.52839458 3 0.51538998 -0.12554352 0.84770995
3 -0.16313398 -0.98549491 -0.046767063 3 0.84128517 -0.11418702 -0.52839458 3 0.51538998 -0.12554352 0.84770995
3 -0.76555365 -0.64080638 -0.057401124 3 0.56159782 -0.62205434 -0.54557908 3 0.31390411 -0.4499062 0.83609134
3 -0.76555365 -0.64080638 -0.057401124 3 0.56159782 -0.62205434 -0.54557908 3 0.31390411 -0.4499062 0.83609134
3 0.37382165 -0.72867572 -0.57383716 3 -0.74130219 -0.60656393 0.28731772 3 -0.55743033 0.31798112 -0.76691568
3 0.37382165 -0.72867572 -0.57383716 3 -0.74130219 -0.60656393 0.28731772 3 -0.55743033 0.31798112 -0.76691568
3 -0.60979688 0.7923466 0.01829504 3 -0.70178896 -0.55054176 0.45210183 3 0.36829343 0.26285106 0.89177865
3 -0.60979688 0.7923466 0.01829504 3 -0.70178896 -0.55054176 0.45210183 3 0.36829343 0.26285106 0.89177865
3 0.91717702 0.014816133 -0.39820457 3 -0.091076858 0.98065096 -0.17328817 3 0.38793227 0.19520314 0.90077984
3 0.91717702 0.014816133 -0.39820457 3 -0.091076858 0.98065096 -0.17328817 3 0.38793227 0.19520314 0.90077984
3 0.086873457 -0.90316951 -0.42040199 3 -0.90717989 -0.24610567 0.34125739 3 -0.41167659 0.35173404 -0.84071726
3 0.086873457 -0.90316951 -0.42040199 3 -0.90717989 -0.24610567 0.34125739 3 -0.41167659 0.35173404 -0.84071726
3 0.68832481 -0.22977303 -0.68805039 3 -0.28419873 -0.95810264 0.035644367 3 -0.667413 0.17100814 -0.724787
3 0.68832481 -0.22977303 -0.68805039 3 -0.28419873 -0.95810264 0.035644367 3 -0.667413 0.17100814 -0.724787
3 -0.10399883 -0.99327606 0.050862879 3 -0.75961369 0.11233701 0.64059925 3 -0.64200562 0.027985353 -0.76618892
3 -0.10399883 -0.99327606 0.050862879 3 -0.75961369 0.11233701 0.64059925 3 -0.64200562 0.027985353 -0.76618892
3 -0.67651719 -0.60205072 0.42409849 3 0.59735757 -0.78542393 -0.16209053 3 0.43068379 0.14368145 0.89099222
3 -0.67651719 -0.60205072 0.42409849 3 0.59735757 -0.78542393 -0.16209053 3 0.43068379 0.14368145 0.89099222
3 -0.78492457 0.22510155 0.57725453 3 0.11100491 0.96768576 -0.22641155 3 -0.60956669 -0.11363784 -0.78454757
3 -0.78492457 0.22510155 0.57725453 3 0.11100491 0.96768576 -0.22641155 3 -0.60956669 -0.11363784 -0.78454757
3 -0.64077425 0.76324463 0.082862146 3 0.65552241 0.60010737 -0.45843396 3 -0.39962339 -0.23943464 -0.88485718
3 -0.64077425 0.76324463 0.082862146 3 0.65552241 0.60010737 -0.45843396 3 -0.39962339 -0.23943464 -0.88485718
3 0.6983301 0.26611686 -0.66446745 3 -0.12234105 0.95903373 0.25551379 3 0.70524293 -0.097141378 0.70227921
3 0.6983301 0.26611686 -0.66446745 3 -0.12234105 0.95903373 0.25551379 3 0.70524293 -0.097141378 0.70227921
3 -0.21060497 -0.97493422 0.071755514 3 -0.61441213 0.18910213 0.76598847 3 -0.7603575 0.11723337 -0.63883722
3 -0.21060497 -0.97493422 0.071755514 3 -0.61441213 0.18910213 0.76598847 3 -0.7603575 0.11723337 -0.63883722
3 -0.49343994 0.71429992 0.49627879 3 -0.48580581 -0.69962239 0.52394789 3 0.72146362 0.017441846 0.69223279
3 -0.49343994 0.71429992 0.49627879 3 -0.48580581 -0.69962239 0.52394789 3 0.72146362 0.017441846 0.69223279
3 -0.73214895 -0.64994919 -0.20377439 3 -0.56990176 0.42067218 0.7058661 3 -0.37305486 0.63293052 -0.67840183
3 -0.73214895 -0.64994919 -0.20377439 3 -0.56990176 0.42067218 0.7058661 3 -0.37305486 0.63293052 -0.67840183
3 0.51759225 0.73959577 -0.43022835 3 -0.70476925 0.65364146 0.2757777 3 0.48517901 0.16047119 0.85956407
3 0.51759225 0.73959577 -0.43022835 3 -0.70476925 0.65364146 0.2757777 3 0.48517901 0.16047119 0.85956407
3 0.76575249 0.21671987 -0.60552102 3 -0.27217448 0.96224797 0.00019811094 3 0.58270413 0.16465561 0.79582942
3 0.76575249 0.21671987 -0.60552102 3 -0.27217448 0.96224797 0.00019811094 3 0.58270413 0.16465561 0.79582942
3 0.34989434 -0.63922745 -0.68480819 3 0.63202643 0.70065629 -0.3310945 3 0.69145983 -0.31696883 0.64916426
3 0.34989434 -0.63922745 -0.68480819 3 0.63202643 0.70065629 -0.3310945 3 0.69145983 -0.31696883 0.64916426
3 0.39170608 0.90262109 -0.1784423 3 -0.77899224 0.42854625 0.45773277 3 0.48962986 -0.040291786 0.87099892
3 0.39170608 0.90262109 -0.1784423 3 -0.77899224 0.42854625 0.45773277 3 0.48962986 -0.040291786 0.87099892
3 -0.61095661 0.74126256 0.2779603 3 0.47211516 0.62299407 -0.62368721 3 -0.63548362 -0.24981642 -0.73058355
3 -0.61095661 0.74126256 0.2779603 3 0.47211516 0.62299407 -0.62368721 3 -0.63548362 -0.24981642 -0.73058355
3 0.80740952 -0.08745034 -0.5834744 3 0.029252958 0.99367148 -0.10844999 3 0.58926594 0.070495181 0.80485785
3 0.80740952 -0.08745034 -0.5834744 3 0.029252958 0.99367148 -0.10844999 3 0.58926594 0.070495181 0.80485785
3 -0.81770724 0.43837327 0.3730734 3 -0.31764984 -0.8841309 0.3426531 3 0.48005563 0.16168323 0.86220944
3 -0.81770724 0.43837327 0.3730734 3 -0.31764984 -0.8841309 0.3426531 3 0.48005563 0.16168323 0.86220944
3 -0.73561937 -0.50498074 0.45150703 3 -0.56858432 0.8226006 -0.0063435584 3 -0.36820653 -0.26138622 -0.89224511
3 -0.73561937 -0.50498074 0.45150703 3 -0.56858432 0.8226006 -0.0063435584 3 -0.36820653 -0.26138622 -0.89224511
3 -0.74005842 -0.47821847 0.47288561 3 -0.51602805 0.85468966 0.056752667 3 -0.43131056 -0.20202191 -0.87929428
3 -0.74005842 -0.47821847 0.47288561 3 -0.51602805 0.85468966 0.056752667 3 -0.43131056 -0.20202191 -0.87929428
3 -0.26489973 -0.96182942 0.068647578 3 0.85012323 -0.26654729 -0.45414007 3 0.45510304 -0.061942581 0.88828164
3 -0.26489973 -0.96182942 0.068647578 3 0.85012323 -0.26654729 -0.45414007 3 0.45510304 -0.061942581 0.88828164
3 0.67163366 0.39981997 0.62374067 3 -0.71709985 0.13921139 0.6829263 3 0.18621567 -0.90596044 0.38020977
3 0.67163366 0.39981997 0.62374067 3 -0.71709985 0.13921139 0.6829263 3 0.18621567 -0.90596044 0.38020977
3 0.87491155 0.094611108 -0.47495124 3 -0.17023933 0.97822326 -0.11873549 3 0.45337448 0.1847384 0.87196529
3 0.87491155 0.094611108 -0.47495124 3 -0.17023933 0.97822326 -0.11873549 3 0.45337448 0.1847384 0.87196529
3 -0.82861298 0.17754954 0.53092062 3 -0.1235122 -0.98298484 0.13596137 3 0.54602659 0.047084227 0.83644366
3 -0.82861298 0.17754954 0.53092062 3 -0.1235122 -0.98298484 0.13596137 3 0.54602659 0.047084227 0.83644366
3 0.47291586 0.76039845 -0.44513452 3 -0.8311311 0.55270392 0.061150327 3 0.29252622 0.34104618 0.89337331
3 0.47291586 0.76039845 -0.44513452 3 -0.8311311 0.55270392 0.061150327 3 0.29252622 0.34104618 0.89337331
3 -0.027849494 -0.98701119 0.15821934 3 0.93369162 -0.082212172 -0.34851304 3 0.35699379 0.13802202 0.92385358
3 -0.027849494 -0.98701119 0.15821934 3 0.93369162 -0.082212172 -0.34851304 3 0.35699379 0.13802202 0.92385358
3 -0.69731134 0.645769 0.31102937 3 -0.45709756 -0.73488557 0.5010041 3 0.55210394 0.20718503 0.80762351
3 -0.69731134 0.645769 0.31102937 3 -0.45709756 -0.73488557 0.5010041 3 0.55210394 0.20718503 0.80762351
3 -0.056982234 -0.90339851 0.42499903 3 0.82481247 -0.28245029 -0.48980233 3 0.56252778 0.32263437 0.76122904
3 -0.056982234 -0.90339851 0.42499903 3 0.82481247 -0.28245029 -0.48980233 3 0.56252778 0.32263437 0.76122904
3 0.83422321 0.44068199 -0.33146799 3 -0.54528964 0.7486971 -0.37697735 3 0.082041942 0.4952293 0.86487985
3 0.83422321 0.44068199 -0.33146799 3 -0.54528964 0.7486971 -0.37697735 3 0.082041942 0.4952293 0.86487985
3 -0.35216516 0.91994435 -0.17228535 3 0.84029931 0.2297135 -0.49104878 3 -0.41216123 -0.31770149 -0.85392559
3 -0.35216516 0.91994435 -0.17228535 3 0.84029931 0.2297135 -0.49104878 3 -0.41216123 -0.31770149 -0.85392559
3 -0.84541911 0.12231772 0.51990855 3 -0.041138344 -0.98544395 0.16494846 3 0.53251678 0.11806241 0.83814508
3 -0.84541911 0.12231772 0.51990855 3 -0.041138344 -0.98544395 0.16494846 3 0.53251678 0.11806241 0.83814508
3 -0.81651914 0.40464711 0.41177329 3 0.30716351 0.90841454 -0.28360856 3 -0.48882234 -0.10509002 -0.86603057
3 -0.81651914 0.40464711 0.41177329 3 0.30716351 0.90841454 -0.28360856 3 -0.48882234 -0.10509002 -0.86603057
3 0.92469585 -0.019971596 -0.3801828 3 -0.24967688 -0.78568757 -0.5660007 3 -0.2874009 0.61830121 -0.73150831
3 0.92469585 -0.019971596 -0.3801828 3 -0.24967688 -0.78568757 -0.5660007 3 -0.2874009 0.61830121 -0.73150831
3 0.20870264 0.81865597 -0.5350194 3 -0.9750756 0.13205905 -0.17829245 3 -0.075306036 0.55889434 0.82581246
3 0.20870264 0.81865597 -0.5350194 3 -0.9750756 0.13205905 -0.17829245 3 -0.075306036 0.55889434 0.82581246
3 -0.13877463 -0.88213795 0.45008266 3 0.81044137 -0.36235374 -0.46030945 3 0.56914544 0.30088627 0.76520646
3 -0.13877463 -0.88213795 0.45008266 3 0.81044137 -0.36235374 -0.46030945 3 0.56914544 0.30088627 0.76520646
3 -0.80762261 0.053351101 0.58728129 3 -0.051292755 0.98576915 -0.16008863 3 -0.58746451 -0.1594145 -0.79339308
3 -0.80762261 0.053351101 0.58728129 3 -0.051292755 0.98576915 -0.16008863 3 -0.58746451 -0.1594145 -0.79339308
3 0.87373042 -0.48604599 -0.018828999 3 -0.40727615 -0.75219828 0.51799989 3 -0.26593491 -0.44492361 -0.85517341
3 0.87373042 -0.48604599 -0.018828999 3 -0.40727615 -0.75219828 0.51799989 3 -0.26593491 -0.44492361 -0.85517341
3 0.72586113 -0.48717639 -0.48557675 3 -0.40639743 -0.87330055 0.26867697 3 -0.5549475 0.002314961 -0.83188218
3 0.72586113 -0.48717639 -0.48557675 3 -0.40639743 -0.87330055 0.26867697 3 -0.5549475 0.002314961 -0.83188218
3 0.85735834 0.50677842 -0.090068258 3 -0.42276436 0.59350878 -0.68484855 3 -0.29361024 0.62523824 0.72309756
3 0.85735834 0.50677842 -0.090068258 3 -0.42276436 0.59350878 -0.68484855 3 -0.29361024 0.62523824 0.72309756
3 -0.99822652 0.058913048 -0.0085493224 3 0.054614648 0.84916419 -0.52529746 3 -0.023687091 -0.52483279 -0.85087574
3 -0.99822652 0.058913048 -0.0085493224 3 0.054614648 0.84916419 -0.52529746 3 -0.023687091 -0.52483279 -0.85087574
3 -0.89425272 -0.23806089 0.3789975 3 -0.42705131 0.7072739 -0.56337452 3 -0.13393757 -0.66565061 -0.73414582
3 -0.89425272 -0.23806089 0.3789975 3 -0.42705131 0.7072739 -0.56337452 3 -0.13393757 -0.66565061 -0.73414582
3 0.32728061 0.72288096 -0.60854793 3 -0.89985764 0.041909203 -0.43416566 3 -0.28834632 0.68970048 0.66420603
3 0.32728061 0.72288096 -0.60854793 3 -0.89985764 0.041909203 -0.43416566 3 -0.28834632 0.68970048 0.66420603
3 0.86910498 -0.23797502 0.43361774 3 0.36583421 0.89928025 -0.23970905 3 -0.33289909 0.36696455 0.86862844
3 0.86910498 -0.23797502 0.43361774 3 0.36583421 0.89928025 -0.23970905 3 -0.33289909 0.36696455 0.86862844
3 0.9736141 -0.20543103 0.099366874 3 0.2100099 0.97696286 -0.037941232 3 -0.089283325 0.057808116 0.99432731
3 0.9736141 -0.20543103 0.099366874 3 0.2100099 0.97696286 -0.037941232 3 -0.089283325 0.057808116 0.99432731
3 0.62723523 0.72972327 -0.27217627 3 -0.73951918 0.44839984 -0.50204486 3 -0.24431011 0.51617968 0.82089657
3 0.62723523 0.72972327 -0.27217627 3 -0.73951918 0.44839984 -0.50204486 3 -0.24431011 0.51617968 0.82089657
3 -0.799766 0.19053836 -0.56927097 3 0.49089149 0.75341821 -0.4374775 3 0.34554297 -0.62932992 -0.69609195
3 -0.799766 0.19053836 -0.56927097 3 0.49089149 0.75341821 -0.4374775 3 0.34554297 -0.62932992 -0.69609195
3 0.18610176 0.83298051 -0.52106589 3 -0.95999551 0.041225769 -0.27696419 3 -0.20922439 0.55176449 0.8073296
3 0.18610176 0.83298051 -0.52106589 3 -0.95999551 0.041225769 -0.27696419 3 -0.20922439 0.55176449 0.8073296
3 0.20140567 0.62751716 -0.75210249 3 0.97830409 -0.16692957 0.12270244 3 -0.048550252 -0.76049775 -0.64752305
3 0.20140567 0.62751716 -0.75210249 3 0.97830409 -0.16692957 0.12270244 3 -0.048550252 -0.76049775 -0.64752305
3 -0.31491944 0.71813112 -0.62057519 3 -0.92519557 -0.37814689 0.031910777 3 -0.21175247 0.58420277 0.78349733
3 -0.31491944 0.71813112 -0.62057519 3 -0.92519557 -0.37814689 0.031910777 3 -0.21175247 0.58420277 0.78349733
3 -0.36134049 -0.9028787 0.23290133 3 0.92718065 -0.32143945 0.19238669 3 -0.098838151 0.28545883 0.95328081
3 -0.36134049 -0.9028787 0.23290133 3 0.92718065 -0.32143945 0.19238669 3 -0.098838151 0.28545883 0.95328081
3 -0.53545833 0.60814553 -0.58604056 3 0.80144954 0.58475423 -0.12546429 3 0.26638913 -0.53686279 -0.80050939
3 -0.53545833 0.60814553 -0.58604056 3 0.80144954 0.58475423 -0.12546429 3 0.26638913 -0.53686279 -0.80050939
3 -0.93493676 -0.32852879 0.13402304 3 0.34340596 -0.74282509 0.57470292 3 -0.08925081 0.58333516 0.80731314
3 -0.93493676 -0.32852879 0.13402304 3 0.34340596 -0.74282509 0.57470292 3 -0.08925081 0.58333516 0.80731314
3 -0.87144816 0.37026545 -0.32168555 3 -0.40932643 -0.91034335 0.06104739 3 -0.27024072 0.1848741 0.94487643
3 -0.87144816 0.37026545 -0.32168555 3 -0.40932643 -0.91034335 0.06104739 3 -0.27024072 0.1848741 0.94487643
3 -0.81266487 -0.57928091 0.063321054 3 -0.48712745 0.61567849 -0.61939257 3 0.31981641 -0.53420424 -0.78252375
3 -0.81266487 -0.57928091 0.063321054 3 -0.48712745 0.61567849 -0.61939257 3 0.31981641 -0.53420424 -0.78252375
3 -0.64421409 0.51323038 -0.5670827 3 -0.68786705 -0.71294659 0.1361843 3 -0.33440563 0.47780925 0.81232458
3 -0.64421409 0.51323038 -0.5670827 3 -0.68786705 -0.71294659 0.1361843 3 -0.33440563 0.47780925 0.81232458
3 -0.2736297 0.73333222 -0.62237501 3 0.93395305 0.35724694 0.010320812 3 0.22991012 -0.57844484 -0.78265131
3 -0.2736297 0.73333222 -0.62237501 3 0.93395305 0.35724694 0.010320812 3 0.22991012 -0.57844484 -0.78265131
3 -0.99419665 -0.10061563 0.038074903 3 0.10504396 -0.83155811 0.54541463 3 -0.023215737 0.54624885 0.83730119
3 -0.99419665 -0.10061563 0.038074903 3 0.10504396 -0.83155811 0.54541463 3 -0.023215737 0.54624885 0.83730119
3 -0.3815918 -0.8857289 0.26433331 3 -0.83695775 0.20972449 -0.50548744 3 0.39228767 -0.41412559 -0.82134676
3 -0.3815918 -0.8857289 0.26433331 3 -0.83695775 0.20972449 -0.50548744 3 0.39228767 -0.41412559 -0.82134676
3 0.86213005 -0.48155159 0.15760672 3 0.50433487 0.78562039 -0.35839495 3 0.048766598 0.38846961 0.92017019
3 0.86213005 -0.48155159 0.15760672 3 0.50433487 0.78562039 -0.35839495 3 0.048766598 0.38846961 0.92017019
3 -0.46764171 -0.83820254 0.28058499 3 0.80526191 -0.27309257 0.52628326 3 -0.36450627 0.47205624 0.80268192
3 -0.46764171 -0.83820254 0.28058499 3 0.80526191 -0.27309257 0.52628326 3 -0.36450627 0.47205624 0.80268192
3 -0.79518497 -0.58662772 -0.15345621 3 -0.44265866 0.73456043 -0.51427066 3 0.4144083 -0.34101155 -0.84378725
3 -0.79518497 -0.58662772 -0.15345621 3 -0.44265866 0.73456043 -0.51427066 3 0.4144083 -0.34101155 -0.84378725
3 -0.12446932 0.0074154912 -0.99219579 3 0.94539988 0.30444694 -0.11632347 3 0.30120832 -0.9525004 -0.044904981
3 -0.12446932 0.0074154912 -0.99219579 3 0.94539988 0.30444694 -0.11632347 3 0.30120832 -0.9525004 -0.044904981
3 -0.89160866 -0.43531403 0.12464222 3 -0.44348401 0.78394645 -0.43445376 3 0.091410942 -0.44263959 -0.89202827
3 -0.89160866 -0.43531403 0.12464222 3 -0.44348401 0.78394645 -0.43445376 3 0.091410942 -0.44263959 -0.89202827
3 -0.83606791 0.40518433 -0.36988643 3 -0.54145396 -0.7180593 0.43728533 3 -0.088419095 0.56587672 0.81973517
3 -0.83606791 0.40518433 -0.36988643 3 -0.54145396 -0.7180593 0.43728533 3 -0.088419095 0.56587672 0.81973517
3 0.56476909 0.095368788 -0.81971997 3 0.64198405 -0.67491686 0.36379099 3 -0.51854825 -0.73170489 -0.44239762
3 0.56476909 0.095368788 -0.81971997 3 0.64198405 -0.67491686 0.36379099 3 -0.51854825 -0.73170489 -0.44239762
3 -0.9468329 -0.17055756 -0.27279571 3 0.22709891 -0.95491999 -0.19119036 3 -0.22788918 -0.24297696 0.94288319
3 -0.9468329 -0.17055756 -0.27279571 3 0.22709891 -0.95491999 -0.19119036 3 -0.22788918 -0.24297696 0.94288319
3 0.5964306 -0.55422872 0.58060414 3 0.61002684 0.78310668 0.12087676 3 -0.5216682 0.28208938 0.80516326
3 0.5964306 -0.55422872 0.58060414 3 0.61002684 0.78310668 0.12087676 3 -0.5216682 0.28208938 0.80516326
3 0.55383259 0.82239002 0.13016969 3 -0.68907374 0.54046667 -0.48277664 3 -0.46738291 0.1776811 0.86601543
3 0.55383259 0.82239002 0.13016969 3 -0.68907374 0.54046667 -0.48277664 3 -0.46738291 0.1776811 0.86601543
3 -0.84977502 -0.37696943 -0.36847848 3 -0.19821922 0.87621164 -0.43927467 3 0.48845848 -0.30024505 -0.81930536
3 -0.84977502 -0.37696943 -0.36847848 3 -0.19821922 0.87621164 -0.43927467 3 0.48845848 -0.30024505 -0.81930536
3 -0.80020469 -0.037945427 -0.5985254 3 0.19156075 0.92954516 -0.31504056 3 0.56831074 -0.3667509 -0.73655742
3 -0.80020469 -0.037945427 -0.5985254 3 0.19156075 0.92954516 -0.31504056 3 0.56831074 -0.3667509 -0.73655742
3 -0.9283669 -0.17500328 -0.32788545 3 0.19119041 -0.9813965 -0.01752821 3 -0.31871819 -0.078961171 0.94455487
3 -0.9283669 -0.17500328 -0.32788545 3 0.19119041 -0.9813965 -0.01752821 3 -0.31871819 -0.078961171 0.94455487
3 0.69288319 -0.074770346 -0.71716273 3 0.34244671 -0.84115726 0.418551 3 -0.63454181 -0.53559691 -0.55721879
3 0.69288319 -0.074770346 -0.71716273 3 0.34244671 -0.84115726 0.418551 3 -0.63454181 -0.53559691 -0.55721879
3 -0.14794609 0.79855222 -0.58346063 3 -0.93007863 -0.31292146 -0.19244257 3 -0.33625281 0.51419318 0.78901178
3 -0.14794609 0.79855222 -0.58346063 3 -0.93007863 -0.31292146 -0.19244257 3 -0.33625281 0.51419318 0.78901178
3 0.76273435 0.56806284 0.30909678 3 -0.36205566 0.77111006 -0.52374113 3 -0.53586537 0.28756526 0.79382265
3 0.76273435 0.56806284 0.30909678 3 -0.36205566 0.77111006 -0.52374113 3 -0.53586537 0.28756526 0.79382265
3 -0.29424173 0.84540707 -0.44576755 3 0.81722891 0.46439025 0.34128988 3 0.49553901 -0.26387253 -0.82753402
3 -0.29424173 0.84540707 -0.44576755 3 0.81722891 0.46439025 0.34128988 3 0.49553901 -0.26387253 -0.82753402
3 0.74862999 0.59303033 0.2964257 3 -0.37165034 0.74562836 -0.55309534 3 -0.54902565 0.30389705 0.77859968
3 0.74862999 0.59303033 0.2964257 3 -0.37165034 0.74562836 -0.55309534 3 -0.54902565 0.30389705 0.77859968
3 0.21346486 -0.85226518 0.4775739 3 -0.8527118 -0.40110579 -0.33465919 3 0.476776 -0.33579481 -0.81235862
3 0.21346486 -0.85226518 0.4775739 3 -0.8527118 -0.40110579 -0.33465919 3 0.476776 -0.33579481 -0.81235862
3 0.22266415 0.9221344 -0.31636831 3 -0.86505002 0.037235245 -0.50030208 3 -0.44956568 0.38507372 0.8059833
3 0.22266415 0.9221344 -0.31636831 3 -0.86505002 0.037235245 -0.50030208 3 -0.44956568 0.38507372 0.8059833
3 0.64428824 0.7446894 0.17415643 3 0.58359224 -0.62590361 0.51736355 3 0.49428034 -0.23169476 -0.83785719
3 0.64428824 0.7446894 0.17415643 3 0.58359224 -0.62590361 0.51736355 3 0.49428034 -0.23169476 -0.83785719
3 0.35100964 0.91501969 -0.19882503 3 0.75611281 -0.15172198 0.63661134 3 0.55234575 -0.37379071 -0.74511385
3 0.35100964 0.91501969 -0.19882503 3 0.75611281 -0.15172198 0.63661134 3 0.55234575 -0.37379071 -0.74511385
3 -0.90877241 -0.19666383 -0.36804375 3 0.17323261 -0.98018944 0.096017867 3 -0.37963572 0.023501212 0.92483753
3 -0.90877241 -0.19666383 -0.36804375 3 0.17323261 -0.98018944 0.096017867 3 -0.37963572 0.023501212 0.92483753
3 0.072140358 0.72798234 0.68178993 3 -0.99594319 0.089440256 0.0098810047 3 -0.053786278 -0.67973691 0.73148119
3 0.072140358 0.72798234 0.68178993 3 -0.99594319 0.089440256 0.0098810047 3 -0.053786278 -0.67973691 0.73148119
3 -0.8938818 0.21059451 0.39575902 3 -0.40663111 -0.75256163 -0.51797885 3 0.1887496 -0.62393987 0.75833547
3 -0.8938818 0.21059451 0.39575902 3 -0.40663111 -0.75256163 -0.51797885 3 0.1887496 -0.62393987 0.75833547
3 0.64277381 0.7631678 0.066459686 3 -0.54292291 0.51503694 -0.66330385 3 -0.54044122 0.39027184 0.7453934
3 0.64277381 0.7631678 0.066459686 3 -0.54292291 0.51503694 -0.66330385 3 -0.54044122 0.39027184 0.7453934
3 0.47443771 0.87191516 -0.12113184 3 -0.72253877 0.30711016 -0.61937177 3 -0.50283879 0.38137573 0.77569705
3 0.47443771 0.87191516 -0.12113184 3 -0.72253877 0.30711016 -0.61937177 3 -0.50283879 0.38137573 0.77569705
3 -0.77056205 -0.51444614 -0.37627023 3 -0.21795982 0.76745123 -0.60291976 3 0.59893882 -0.38257527 -0.70349735
3 -0.77056205 -0.51444614 -0.37627023 3 -0.21795982 0.76745123 -0.60291976 3 0.59893882 -0.38257527 -0.70349735
3 0.60494751 0.7960785 0.017251786 3 -0.66771835 0.51897097 -0.53368676 3 -0.4338097 0.31133312 0.84550631
3 0.60494751 0.7960785 0.017251786 3 -0.66771835 0.51897097 -0.53368676 3 -0.4338097 0.31133312 0.84550631
3 -0.50533283 0.48517391 -0.71361411 3 0.64079213 0.76485109 0.066243827 3 0.57794833 -0.42380312 -0.69739985
3 -0.50533283 0.48517391 -0.71361411 3 0.64079213 0.76485109 0.066243827 3 0.57794833 -0.42380312 -0.69739985
3 0.94823176 0.032100741 0.31595263 3 -0.21978217 0.7844792 0.57990366 3 -0.22924301 -0.61932379 0.75092322
3 0.94823176 0.032100741 0.31595263 3 -0.21978217 0.7844792 0.57990366 3 -0.22924301 -0.61932379 0.75092322
3 -0.88380504 0.068561651 -0.46280453 3 -0.19836113 -0.9508068 0.23794857 3 -0.42372349 0.30210254 0.85392779
3 -0.88380504 0.068561651 -0.46280453 3 -0.19836113 -0.9508068 0.23794857 3 -0.42372349 0.30210254 0.85392779
3 -0.56621403 -0.73594022 0.37120578 3 -0.78050524 0.33393335 -0.52848864 3 0.26497814 -0.58896559 -0.76348293
3 -0.56621403 -0.73594022 0.37120578 3 -0.78050524 0.33393335 -0.52848864 3 0.26497814 -0.58896559 -0.76348293
3 -0.26488531 0.69080079 -0.67277795 3 0.78149021 0.56251848 0.26990026 3 0.5648973 -0.45427674 -0.68885678
3 -0.26488531 0.69080079 -0.67277795 3 0.78149021 0.56251848 0.26990026 3 0.5648973 -0.45427674 -0.68885678
3 -0.63350141 -0.75295901 -0.17812593 3 -0.42746478 0.53247797 -0.73057604 3 0.64494187 -0.38667837 -0.65918887
3 -0.63350141 -0.75295901 -0.17812593 3 -0.42746478 0.53247797 -0.73057604 3 0.64494187 -0.38667837 -0.65918887
3 -0.0047200015 0.98465937 -0.17442381 3 -0.86491895 -0.091563284 -0.49348897 3 -0.50188935 0.14853314 0.85208273
3 -0.0047200015 0.98465937 -0.17442381 3 -0.86491895 -0.091563284 -0.49348897 3 -0.50188935 0.14853314 0.85208273
3 -0.7134797 -0.042348605 -0.69939494 3 -0.29608905 -0.88644791 0.35572657 3 -0.63504177 0.4608869 0.61992365
3 -0.7134797 -0.042348605 -0.69939494 3 -0.29608905 -0.88644791 0.35572657 3 -0.63504177 0.4608869 0.61992365
3 -0.88879889 0.44964886 -0.088614203 3 0.26003945 0.6540069 0.71039051 3 0.3773807 0.60835099 -0.69820696
3 -0.88879889 0.44964886 -0.088614203 3 0.26003945 0.6540069 0.71039051 3 0.3773807 0.60835099 -0.69820696
3 -0.33621049 0.68407172 -0.64730859 3 0.64586854 0.66770613 0.3701652 3 0.68543148 -0.29362288 -0.66631019
3 -0.33621049 0.68407172 -0.64730859 3 0.64586854 0.66770613 0.3701652 3 0.68543148 -0.29362288 -0.66631019
3 -0.36401013 0.78198498 -0.50596082 3 -0.75187254 -0.56732678 -0.33589923 3 -0.54971313 0.25814721 0.7944656
3 -0.36401013 0.78198498 -0.50596082 3 -0.75187254 -0.56732678 -0.33589923 3 -0.54971313 0.25814721 0.7944656
3 -0.27911165 -0.81148756 0.51340503 3 0.88750041 -0.013848498 0.46059895 3 -0.36666039 0.58420569 0.72406071
3 -0.27911165 -0.81148756 0.51340503 3 0.88750041 -0.013848498 0.46059895 3 -0.36666039 0.58420569 0.72406071
3 -0.38827592 -0.60684425 -0.69352859 3 0.79365653 -0.60267568 0.083013952 3 -0.4683494 -0.51819122 0.71563023
3 -0.38827592 -0.60684425 -0.69352859 3 0.79365653 -0.60267568 0.083013952 3 -0.4683494 -0.51819122 0.71563023
3 -0.095289074 -0.89474851 0.43628582 3 0.88190907 0.12739378 0.45388061 3 -0.461689 0.42801428 0.77694738
3 -0.095289074 -0.89474851 0.43628582 3 0.88190907 0.12739378 0.45388061 3 -0.461689 0.42801428 0.77694738
3 -0.44274366 -0.51998651 -0.73047388 3 0.681844 -0.72430539 0.10232662 3 -0.58229458 -0.45276475 0.67523128
3 -0.44274366 -0.51998651 -0.73047388 3 0.681844 -0.72430539 0.10232662 3 -0.58229458 -0.45276475 0.67523128
3 0.20651034 0.9048717 0.37223765 3 -0.75863546 0.38833725 -0.52313173 3 -0.6179207 -0.17436048 0.76666325
3 0.20651034 0.9048717 0.37223765 3 -0.75863546 0.38833725 -0.52313173 3 -0.6179207 -0.17436048 0.76666325
3 0.16914284 0.82825959 0.53420675 3 -0.74346447 0.46305186 -0.48253873 3 -0.64703268 -0.31554574 0.69410342
3 0.16914284 0.82825959 0.53420675 3 -0.74346447 0.46305186 -0.48253873 3 -0.64703268 -0.31554574 0.69410342
3 -0.58066893 -0.3034175 -0.75548756 3 0.50376129 -0.86288643 -0.040640861 3 -0.63956887 -0.40418428 0.65390116
3 -0.58066893 -0.3034175 -0.75548756 3 0.50376129 -0.86288643 -0.040640861 3 -0.63956887 -0.40418428 0.65390116
0 0 0 1 0 0 0 1 0 0 0 1 0 0 0 0 0 226 1 0 0
