ply
format ascii 1.0
comment PCL generated
element vertex 226
property list uint float x_axis
property list uint float y_axis
property list uint float z_axis
element camera 1
property float view_px
property float view_py
property float view_pz
property float x_axisx
property float x_axisy
property float x_axisz
property float y_axisx
property float y_axisy
property float y_axisz
property float z_axisx
property float z_axisy
property float z_axisz
property float focal
property float scalex
property float scaley
property float centerx
property float centery
property int viewportx
property int viewporty
property float k1
property float k2
end_header
3 0.74895954 0.32834888 -0.57554036 3 0.37390545 -0.9265148 -0.042012751 3 -0.54704136 -0.18373178 -0.81669354
3 0.74895954 0.32834888 -0.57554036 3 0.37390545 -0.9265148 -0.042012751 3 -0.54704136 -0.18373178 -0.81669354
3 -0.82091922 0.39932659 0.40820318 3 -0.29645523 -0.90898228 0.29302815 3 0.4880634 0.1195385 0.86458361
3 -0.82091922 0.39932659 0.40820318 3 -0.29645523 -0.90898228 0.29302815 3 0.4880634 0.1195385 0.86458361
3 0.77836525 0.096644968 -0.62032843 3 -0.18092754 0.98069096 -0.07423304 3 0.60117626 0.1700149 0.78082138
3 0.77836525 0.096644968 -0.62032843 3 -0.18092754 0.98069096 -0.07423304 3 0.60117626 0.1700149 0.78082138
3 -0.7190668 -0.40724486 0.5631116 3 -0.33966795 0.91287649 0.22645654 3 -0.60627449 -0.028433556 -0.79474711
3 -0.7190668 -0.40724486 0.5631116 3 -0.33966795 0.91287649 0.22645654 3 -0.60627449 -0.028433556 -0.79474711
3 -0.010145183 -0.97759038 -0.21027155 3 0.88183957 0.090393901 -0.46280456 3 0.47144055 -0.19012101 0.86116081
3 -0.010145183 -0.97759038 -0.21027155 3 0.88183957 0.090393901 -0.46280456 3 0.47144055 -0.19012101 0.86116081
3 0.61384779 -0.5292331 -0.58575022 3 0.72336721 0.67421675 0.14890234 3 0.31611848 -0.5151158 0.79669631
3 0.61384779 -0.5292331 -0.58575022 3 0.72336721 0.67421675 0.14890234 3 0.31611848 -0.5151158 0.79669631
3 -0.08134523 -0.91928649 -0.3850913 3 -0.85939634 -0.13099486 0.49424535 3 -0.50479805 0.37115052 -0.77937561
3 -0.08134523 -0.91928649 -0.3850913 3 -0.85939634 -0.13099486 0.49424535 3 -0.50479805 0.37115052 -0.77937561
3 0.69557214 0.55832803 -0.45216069 3 -0.64354366 0.76398915 -0.046608418 3 0.31942299 0.32340458 0.89071804
3 0.69557214 0.55832803 -0.45216069 3 -0.64354366 0.76398915 -0.046608418 3 0.31942299 0.32340458 0.89071804
3 0.91462201 -0.2450844 -0.32155916 3 -0.15708797 -0.94825554 0.27592593 3 -0.37254533 -0.20185487 -0.9057951
3 0.91462201 -0.2450844 -0.32155916 3 -0.15708797 -0.94825554 0.27592593 3 -0.37254533 -0.20185487 -0.9057951
3 0.02218187 -0.9318608 -0.36213741 3 -0.93016267 -0.15201676 0.33419833 3 -0.36647725 0.32943374 -0.87015396
3 0.02218187 -0.9318608 -0.36213741 3 -0.93016267 -0.15201676 0.33419833 3 -0.36647725 0.32943374 -0.87015396
3 0.030157981 -0.94997066 -0.31088009 3 -0.69756007 -0.24276175 0.6741491 3 -0.71589154 0.19652648 -0.66998267
3 0.030157981 -0.94997066 -0.31088009 3 -0.69756007 -0.24276175 0.6741491 3 -0.71589154 0.19652648 -0.66998267
3 -0.73582321 -0.094217055 0.6705873 3 -0.048530176 0.99506438 0.086554587 3 -0.67543238 0.031145168 -0.73676395
3 -0.73582321 -0.094217055 0.6705873 3 -0.048530176 0.99506438 0.086554587 3 -0.67543238 0.031145168 -0.73676395
3 0.83648628 0.27482972 -0.47408792 3 -0.30101472 0.95337588 0.021559998 3 0.45790935 0.12467282 0.88021356
3 0.83648628 0.27482972 -0.47408792 3 -0.30101472 0.95337588 0.021559998 3 0.45790935 0.12467282 0.88021356
3 -0.59457666 0.70662117 0.38362134 3 -0.50447172 -0.6993733 0.50634533 3 0.62608868 0.10753501 0.77230132
3 -0.59457666 0.70662117 0.38362134 3 -0.50447172 -0.6993733 0.50634533 3 0.62608868 0.10753501 0.77230132
3 0.5280894 0.71459037 -0.45878348 3 0.77255297 -0.62856996 -0.089787498 3 -0.35253882 -0.30701876 -0.88399994
3 0.5280894 0.71459037 -0.45878348 3 0.77255297 -0.62856996 -0.089787498 3 -0.35253882 -0.30701876 -0.88399994
3 0.64829105 0.25679073 -0.71678263 3 -0.032212496 0.94981742 0.31114209 3 0.76071101 -0.17862123 0.62402987
3 0.64829105 0.25679073 -0.71678263 3 -0.032212496 0.94981742 0.31114209 3 0.76071101 -0.17862123 0.62402987
3 -0.14789167 -0.9887442 0.022651367 3 -0.60434991 0.10847805 0.78929961 3 -0.7828725 0.10304143 -0.61359042
3 -0.14789167 -0.9887442 0.022651367 3 -0.60434991 0.10847805 0.78929961 3 -0.7828725 0.10304143 -0.61359042
3 -0.50645822 0.70188981 0.50085008 3 -0.45511198 -0.71095121 0.53611696 3 0.73237497 0.043578003 0.67950559
3 -0.50645822 0.70188981 0.50085008 3 -0.45511198 -0.71095121 0.53611696 3 0.73237497 0.043578003 0.67950559
3 -0.7045933 -0.67734289 -0.21155363 3 -0.60729361 0.42136163 0.67353469 3 -0.36707345 0.60304302 -0.70823455
3 -0.7045933 -0.67734289 -0.21155363 3 -0.60729361 0.42136163 0.67353469 3 -0.36707345 0.60304302 -0.70823455
3 0.50386781 0.74479294 -0.43749377 3 -0.71726471 0.64297974 0.26852992 3 0.4812988 0.17849527 0.85819042
3 0.50386781 0.74479294 -0.43749377 3 -0.71726471 0.64297974 0.26852992 3 0.4812988 0.17849527 0.85819042
3 0.75340432 0.30776456 -0.58108789 3 -0.28168517 0.94957328 0.13771093 3 0.59416771 0.059931733 0.80210531
3 0.75340432 0.30776456 -0.58108789 3 -0.28168517 0.94957328 0.13771093 3 0.59416771 0.059931733 0.80210531
3 -0.024883447 -0.76695651 -0.64121652 3 0.82386148 0.34757772 -0.44770762 3 0.56624478 -0.53941399 0.62321693
3 -0.024883447 -0.76695651 -0.64121652 3 0.82386148 0.34757772 -0.44770762 3 0.56624478 -0.53941399 0.62321693
3 0.46688548 0.84707946 -0.25391805 3 -0.68690956 0.52822357 0.49913436 3 0.55693185 -0.058620065 0.82848692
3 0.46688548 0.84707946 -0.25391805 3 -0.68690956 0.52822357 0.49913436 3 0.55693185 -0.058620065 0.82848692
3 0.77399129 -0.31262246 -0.55064034 3 -0.060630754 -0.90221536 0.42700303 3 -0.63028687 -0.29711086 -0.71726125
3 0.77399129 -0.31262246 -0.55064034 3 -0.060630754 -0.90221536 0.42700303 3 -0.63028687 -0.29711086 -0.71726125
3 -0.79354978 0.088231534 0.60207486 3 -0.14688 -0.98794937 -0.048811719 3 0.59051239 -0.12716724 0.79694647
3 -0.79354978 0.088231534 0.60207486 3 -0.14688 -0.98794937 -0.048811719 3 0.59051239 -0.12716724 0.79694647
3 -0.66127861 0.61702543 0.42660323 3 -0.47614673 -0.78470343 0.39689416 3 0.57965064 0.059331965 0.81270224
3 -0.66127861 0.61702543 0.42660323 3 -0.47614673 -0.78470343 0.39689416 3 0.57965064 0.059331965 0.81270224
3 0.65522778 0.59862155 -0.46079168 3 0.68713665 -0.7257188 0.034289032 3 -0.3138791 -0.33909401 -0.88684571
3 0.65522778 0.59862155 -0.46079168 3 0.68713665 -0.7257188 0.034289032 3 -0.3138791 -0.33909401 -0.88684571
3 -0.45278549 -0.77842528 0.43478665 3 -0.75819361 0.59274668 0.27165025 3 -0.46917772 -0.20665313 -0.85858417
3 -0.45278549 -0.77842528 0.43478665 3 -0.75819361 0.59274668 0.27165025 3 -0.46917772 -0.20665313 -0.85858417
3 -0.28532413 -0.95808965 0.025582829 3 0.88704562 -0.2740871 -0.37151921 3 0.36296064 -0.083310157 0.92807275
3 -0.28532413 -0.95808965 0.025582829 3 0.88704562 -0.2740871 -0.37151921 3 0.36296064 -0.083310157 0.92807275
3 -0.94255054 -0.24402846 -0.2281418 3 0.30330965 -0.33891699 -0.89058334 3 0.14000656 -0.90861738 0.39346254
3 -0.94255054 -0.24402846 -0.2281418 3 0.30330965 -0.33891699 -0.89058334 3 0.14000656 -0.90861738 0.39346254
3 0.84413642 0.029893573 -0.53529447 3 -0.09658853 0.99058688 -0.096996546 3 0.52735609 0.13358161 0.83907777
3 0.84413642 0.029893573 -0.53529447 3 -0.09658853 0.99058688 -0.096996546 3 0.52735609 0.13358161 0.83907777
3 -0.83639199 0.2188881 0.50253016 3 -0.21686663 -0.97414273 0.063364863 3 0.50340569 -0.055984102 0.86223471
3 -0.83639199 0.2188881 0.50253016 3 -0.21686663 -0.97414273 0.063364863 3 0.50340569 -0.055984102 0.86223471
3 0.44771662 0.74071825 -0.50088555 3 -0.84254146 0.53706062 0.041108742 3 0.29945585 0.40361169 0.86453682
3 0.44771662 0.74071825 -0.50088555 3 -0.84254146 0.53706062 0.041108742 3 0.29945585 0.40361169 0.86453682
3 -0.16816019 -0.96583432 0.19719616 3 0.92350501 -0.22431995 -0.31115782 3 0.34476194 0.12978745 0.92967439
3 -0.16816019 -0.96583432 0.19719616 3 0.92350501 -0.22431995 -0.31115782 3 0.34476194 0.12978745 0.92967439
3 -0.6747883 0.69872779 0.23757172 3 -0.4879491 -0.66390771 0.56668544 3 0.55368441 0.26646984 0.78894073
3 -0.6747883 0.69872779 0.23757172 3 -0.4879491 -0.66390771 0.56668544 3 0.55368441 0.26646984 0.78894073
3 -0.35722527 -0.62058163 0.69804633 3 0.70214939 -0.67126977 -0.23745154 3 0.61593539 0.40530905 0.67553544
3 -0.35722527 -0.62058163 0.69804633 3 0.70214939 -0.67126977 -0.23745154 3 0.61593539 0.40530905 0.67553544
3 0.95050061 0.19615406 -0.24098189 3 -0.27976912 0.87770426 -0.38905594 3 0.13519606 0.43721721 0.8891362
3 0.95050061 0.19615406 -0.24098189 3 -0.27976912 0.87770426 -0.38905594 3 0.13519606 0.43721721 0.8891362
3 0.73773903 -0.66896147 -0.090728983 3 -0.52683377 -0.65454084 0.54223859 3 -0.42212266 -0.35223135 -0.83531171
3 0.73773903 -0.66896147 -0.090728983 3 -0.52683377 -0.65454084 0.54223859 3 -0.42212266 -0.35223135 -0.83531171
3 -0.79102355 0.25198236 0.5574823 3 -0.1656926 -0.96542102 0.20126617 3 0.58892071 0.066835612 0.80542248
3 -0.79102355 0.25198236 0.5574823 3 -0.1656926 -0.96542102 0.20126617 3 0.58892071 0.066835612 0.80542248
3 -0.86625189 0.24895701 0.43316057 3 0.15398902 0.95783746 -0.24255921 3 -0.47528425 -0.14341541 -0.86806518
3 -0.86625189 0.24895701 0.43316057 3 0.15398902 0.95783746 -0.24255921 3 -0.47528425 -0.14341541 -0.86806518
3 0.75268686 -0.3731375 -0.54243058 3 -0.56381321 -0.79074496 -0.23840508 3 -0.3399663 0.48527387 -0.80556321
3 0.75268686 -0.3731375 -0.54243058 3 -0.56381321 -0.79074496 -0.23840508 3 -0.3399663 0.48527387 -0.80556321
3 -0.74646181 0.52822822 -0.40468484 3 -0.66157538 -0.65447372 0.36603612 3 -0.071504943 0.54096144 0.83800232
3 -0.74646181 0.52822822 -0.40468484 3 -0.66157538 -0.65447372 0.36603612 3 -0.071504943 0.54096144 0.83800232
3 0.30657989 -0.91040498 0.27779794 3 0.76850939 0.064554363 -0.63657385 3 0.56160688 0.4086509 0.71944577
3 0.30657989 -0.91040498 0.27779794 3 0.76850939 0.064554363 -0.63657385 3 0.56160688 0.4086509 0.71944577
3 -0.78105742 0.090183608 0.61791283 3 -0.084572881 0.96512282 -0.24776074 3 -0.61870563 -0.24577403 -0.7461893
3 -0.78105742 0.090183608 0.61791283 3 -0.084572881 0.96512282 -0.24776074 3 -0.61870563 -0.24577403 -0.7461893
3 0.81681192 -0.57597536 0.032721523 3 -0.5036484 -0.68428355 0.52734643 3 -0.28134769 -0.44722304 -0.84902
3 0.81681192 -0.57597536 0.032721523 3 -0.5036484 -0.68428355 0.52734643 3 -0.28134769 -0.44722304 -0.84902
3 0.48093832 -0.69394469 -0.53585368 3 -0.57403022 -0.7111975 0.40581712 3 -0.66271234 0.11242315 -0.74038738
3 0.48093832 -0.69394469 -0.53585368 3 -0.57403022 -0.7111975 0.40581712 3 -0.66271234 0.11242315 -0.74038738
3 0.90173429 0.42635986 0.071362808 3 -0.2543889 0.65683162 -0.70982993 3 -0.34951636 0.62192404 0.70074874
3 0.90173429 0.42635986 0.071362808 3 -0.2543889 0.65683162 -0.70982993 3 -0.34951636 0.62192404 0.70074874
3 -0.90789759 0.39090908 -0.15136775 3 0.40711409 0.73619187 -0.54062909 3 -0.099901162 -0.55245972 -0.82753134
3 -0.90789759 0.39090908 -0.15136775 3 0.40711409 0.73619187 -0.54062909 3 -0.099901162 -0.55245972 -0.82753134
3 -0.87566328 -0.23015407 0.42455041 3 0.41503721 -0.80812371 0.41794777 3 0.24689677 0.54218566 0.80316669
3 -0.87566328 -0.23015407 0.42455041 3 0.41503721 -0.80812371 0.41794777 3 0.24689677 0.54218566 0.80316669
3 -0.43730322 0.45395064 -0.77633423 3 -0.84183133 -0.51030785 0.1758018 3 -0.31636414 0.73042113 0.60530895
3 -0.43730322 0.45395064 -0.77633423 3 -0.84183133 -0.51030785 0.1758018 3 -0.31636414 0.73042113 0.60530895
3 0.76608777 -0.34210074 0.54412925 3 0.46991825 0.87569761 -0.11104314 3 -0.43850476 0.34076506 0.83162057
3 0.76608777 -0.34210074 0.54412925 3 0.46991825 0.87569761 -0.11104314 3 -0.43850476 0.34076506 0.83162057
3 0.99855876 -0.036146604 0.039671011 3 0.036135808 0.99934638 0.00098940299 3 -0.039680839 0.00044556675 0.99921232
3 0.99855876 -0.036146604 0.039671011 3 0.036135808 0.99934638 0.00098940299 3 -0.039680839 0.00044556675 0.99921232
3 0.43374896 0.81018913 -0.39427835 3 0.87932807 -0.28515303 0.38140509 3 0.19658059 -0.51213408 -0.8361069
3 0.43374896 0.81018913 -0.39427835 3 0.87932807 -0.28515303 0.38140509 3 0.19658059 -0.51213408 -0.8361069
3 0.52945679 -0.49713019 0.68741339 3 -0.72897363 -0.68106258 0.068929836 3 0.43390414 -0.53760135 -0.72298825
3 0.52945679 -0.49713019 0.68741339 3 -0.72897363 -0.68106258 0.068929836 3 0.43390414 -0.53760135 -0.72298825
3 -0.42850727 -0.75577122 0.49516809 3 0.88690782 -0.24716762 0.39025989 3 -0.17255773 0.60639751 0.77621251
3 -0.42850727 -0.75577122 0.49516809 3 0.88690782 -0.24716762 0.39025989 3 -0.17255773 0.60639751 0.77621251
3 -0.31104505 -0.4378849 0.84350926 3 -0.93046814 0.32109952 -0.17642117 3 -0.1935982 -0.8397333 -0.50731438
3 -0.31104505 -0.4378849 0.84350926 3 -0.93046814 0.32109952 -0.17642117 3 -0.1935982 -0.8397333 -0.50731438
3 0.56615251 -0.5010764 0.65451795 3 0.73570716 0.66527283 -0.12707056 3 -0.37176085 0.55347478 0.74529159
3 0.56615251 -0.5010764 0.65451795 3 0.73570716 0.66527283 -0.12707056 3 -0.37176085 0.55347478 0.74529159
3 -0.35722342 -0.90562797 0.22853749 3 0.92694545 -0.31368589 0.20584777 3 -0.11473253 0.28537542 0.95152372
3 -0.35722342 -0.90562797 0.22853749 3 0.92694545 -0.31368589 0.20584777 3 -0.11473253 0.28537542 0.95152372
3 -0.74286723 0.32922214 -0.58289033 3 0.59039831 0.73263627 -0.33863568 3 0.31556025 -0.59569877 -0.73862356
3 -0.74286723 0.32922214 -0.58289033 3 0.59039831 0.73263627 -0.33863568 3 0.31556025 -0.59569877 -0.73862356
3 -0.96297765 -0.2326685 0.13615972 3 0.26491913 -0.72321934 0.63778669 3 -0.049919572 0.65024555 0.75808233
3 -0.96297765 -0.2326685 0.13615972 3 0.26491913 -0.72321934 0.63778669 3 -0.049919572 0.65024555 0.75808233
3 -0.89680016 0.24874464 -0.36589006 3 -0.30431366 -0.94709426 0.10200854 3 -0.32115841 0.20282665 0.92505068
3 -0.89680016 0.24874464 -0.36589006 3 -0.30431366 -0.94709426 0.10200854 3 -0.32115841 0.20282665 0.92505068
3 0.18303952 0.85264438 -0.48938131 3 0.91323185 0.036849037 0.40577078 3 0.36401141 -0.52119064 -0.77191722
3 0.18303952 0.85264438 -0.48938131 3 0.91323185 0.036849037 0.40577078 3 0.36401141 -0.52119064 -0.77191722
3 0.65350091 -0.38455117 0.65196401 3 0.6257602 0.75908041 -0.17950311 3 -0.42586493 0.52527851 0.73669648
3 0.65350091 -0.38455117 0.65196401 3 0.6257602 0.75908041 -0.17950311 3 -0.42586493 0.52527851 0.73669648
3 -0.13733566 0.7087844 -0.69192749 3 0.96425068 0.25548968 0.07032688 3 0.22662693 -0.65753317 -0.71853358
3 -0.13733566 0.7087844 -0.69192749 3 0.96425068 0.25548968 0.07032688 3 0.22662693 -0.65753317 -0.71853358
3 0.82858294 0.45293456 -0.32909071 3 -0.55986601 0.67103225 -0.48607185 3 0.00067181687 0.58699751 0.80958843
3 0.82858294 0.45293456 -0.32909071 3 -0.55986601 0.67103225 -0.48607185 3 0.00067181687 0.58699751 0.80958843
3 -0.32000443 -0.9205507 0.22401705 3 -0.87383151 0.19541623 -0.44523135 3 0.36608148 -0.33822906 -0.86694026
3 -0.32000443 -0.9205507 0.22401705 3 -0.87383151 0.19541623 -0.44523135 3 0.36608148 -0.33822906 -0.86694026
3 0.96601486 -0.20903355 0.15205359 3 0.22733232 0.96701801 -0.1148752 3 -0.12302575 0.14553784 0.98167384
3 0.96601486 -0.20903355 0.15205359 3 0.22733232 0.96701801 -0.1148752 3 -0.12302575 0.14553784 0.98167384
3 -0.80381316 -0.58435535 0.11141484 3 0.53249228 -0.62328243 0.57268745 3 -0.26520988 0.51966137 0.81216729
3 -0.80381316 -0.58435535 0.11141484 3 0.53249228 -0.62328243 0.57268745 3 -0.26520988 0.51966137 0.81216729
3 -0.55318403 -0.82845879 0.087427258 3 -0.75637656 0.45550922 -0.46947405 3 0.34911603 -0.32583338 -0.87860721
3 -0.55318403 -0.82845879 0.087427258 3 -0.75637656 0.45550922 -0.46947405 3 0.34911603 -0.32583338 -0.87860721
3 -0.89271462 -0.44074839 -0.093816519 3 -0.30085278 0.42795342 0.85225797 3 -0.33548233 0.78904796 -0.51464063
3 -0.89271462 -0.44074839 -0.093816519 3 -0.30085278 0.42795342 0.85225797 3 -0.33548233 0.78904796 -0.51464063
3 -0.84460658 -0.4688769 0.25844562 3 -0.53532565 0.73225957 -0.42097804 3 0.0081376117 -0.49391341 -0.8694731
3 -0.84460658 -0.4688769 0.25844562 3 -0.53532565 0.73225957 -0.42097804 3 0.0081376117 -0.49391341 -0.8694731
3 -0.93351293 0.24253067 -0.26406932 3 -0.34687239 -0.79729158 0.49396953 3 -0.09073744 0.5527252 0.82840914
3 -0.93351293 0.24253067 -0.26406932 3 -0.34687239 -0.79729158 0.49396953 3 -0.09073744 0.5527252 0.82840914
3 0.30835006 0.29959425 -0.9028641 3 0.77147043 -0.63404715 0.053082272 3 -0.55655515 -0.71290082 -0.4266367
3 0.30835006 0.29959425 -0.9028641 3 0.77147043 -0.63404715 0.053082272 3 -0.55655515 -0.71290082 -0.4266367
3 -0.97373533 -0.075611159 -0.21476179 3 0.15573588 -0.90926433 -0.38598579 3 -0.16609026 -0.40929404 0.89715803
3 -0.97373533 -0.075611159 -0.21476179 3 0.15573588 -0.90926433 -0.38598579 3 -0.16609026 -0.40929404 0.89715803
3 0.59682971 -0.48272043 0.6409176 3 0.55764526 0.8238827 0.10123882 3 -0.57691097 0.29698238 0.76090425
3 0.59682971 -0.48272043 0.6409176 3 0.55764526 0.8238827 0.10123882 3 -0.57691097 0.29698238 0.76090425
3 0.52319223 0.83184046 0.1852334 3 -0.66203046 0.53358686 -0.52630866 3 -0.53664291 0.15273044 0.82987219
3 0.52319223 0.83184046 0.1852334 3 -0.66203046 0.53358686 -0.52630866 3 -0.53664291 0.15273044 0.82987219
3 0.59682661 0.79125649 0.13308342 3 0.64367688 -0.57117909 0.50934714 3 0.47903866 -0.21832925 -0.8502084
3 0.59682661 0.79125649 0.13308342 3 0.64367688 -0.57117909 0.50934714 3 0.47903866 -0.21832925 -0.8502084
3 0.76158839 0.068213299 0.64446115 3 -0.22427413 -0.90525532 0.36085188 3 0.60801685 -0.41935652 -0.6741333
3 0.76158839 0.068213299 0.64446115 3 -0.22427413 -0.90525532 0.36085188 3 0.60801685 -0.41935652 -0.6741333
3 -0.92675763 -0.16487731 -0.33754382 3 0.17481363 -0.98460114 0.00097326934 3 -0.33250654 -0.058105282 0.94130933
3 -0.92675763 -0.16487731 -0.33754382 3 0.17481363 -0.98460114 0.00097326934 3 -0.33250654 -0.058105282 0.94130933
3 0.46096107 0.088919289 -0.88295436 3 0.37866408 -0.91954952 0.10508324 3 -0.80257624 -0.38278231 -0.45754695
3 0.46096107 0.088919289 -0.88295436 3 0.37866408 -0.91954952 0.10508324 3 -0.80257624 -0.38278231 -0.45754695
3 -0.21322645 0.750691 -0.62529808 3 -0.91457748 -0.37847343 -0.14249921 3 -0.34363154 0.54149884 0.7672655
3 -0.21322645 0.750691 -0.62529808 3 -0.91457748 -0.37847343 -0.14249921 3 -0.34363154 0.54149884 0.7672655
3 0.77644086 0.27007291 0.56938583 3 -0.051297277 0.92760181 -0.37003174 3 -0.62809873 0.25809988 0.7340821
3 0.77644086 0.27007291 0.56938583 3 -0.051297277 0.92760181 -0.37003174 3 -0.62809873 0.25809988 0.7340821
3 0.37744913 -0.75121611 0.54148543 3 -0.72991073 -0.60119545 -0.32526004 3 0.56987923 -0.27246699 -0.77524143
3 0.37744913 -0.75121611 0.54148543 3 -0.72991073 -0.60119545 -0.32526004 3 0.56987923 -0.27246699 -0.77524143
3 0.57833934 0.78168416 0.23343851 3 -0.54446119 0.58293778 -0.60311329 3 -0.60752422 0.22170591 0.76273251
3 0.57833934 0.78168416 0.23343851 3 -0.54446119 0.58293778 -0.60311329 3 -0.60752422 0.22170591 0.76273251
3 -0.25410247 0.84565389 -0.4693628 3 0.84915662 0.42737702 0.31029356 3 0.4629958 -0.31971613 -0.82669014
3 -0.25410247 0.84565389 -0.4693628 3 0.84915662 0.42737702 0.31029356 3 0.4629958 -0.31971613 -0.82669014
3 -0.82624614 -0.50100082 -0.25751784 3 -0.31084383 0.78675383 -0.53328657 3 0.46978027 -0.36057809 -0.80578536
3 -0.82624614 -0.50100082 -0.25751784 3 -0.31084383 0.78675383 -0.53328657 3 0.46978027 -0.36057809 -0.80578536
3 -0.61916298 -0.75499737 -0.21590793 3 -0.62103218 0.63906699 -0.45377588 3 0.4805792 -0.14687547 -0.86456424
3 -0.61916298 -0.75499737 -0.21590793 3 -0.62103218 0.63906699 -0.45377588 3 0.4805792 -0.14687547 -0.86456424
3 0.26336247 0.91817981 -0.29594943 3 0.76561201 -0.01228857 0.64318538 3 0.58692294 -0.3959735 -0.70620573
3 0.26336247 0.91817981 -0.29594943 3 0.76561201 -0.01228857 0.64318538 3 0.58692294 -0.3959735 -0.70620573
3 -0.91754955 -0.077383563 -0.390019 3 0.057006028 -0.99634778 0.063574046 3 -0.39351416 0.03609889 0.91860962
3 -0.91754955 -0.077383563 -0.390019 3 0.057006028 -0.99634778 0.063574046 3 -0.39351416 0.03609889 0.91860962
3 0.1744442 -0.68071282 -0.71147686 3 0.98463637 0.11488554 0.13150118 3 -0.007776143 -0.72348553 0.69029576
3 0.1744442 -0.68071282 -0.71147686 3 0.98463637 0.11488554 0.13150118 3 -0.007776143 -0.72348553 0.69029576
3 0.097401239 0.82361209 0.55872732 3 -0.96713185 -0.054164343 0.24844007 3 0.23488131 -0.56456137 0.79126573
3 0.097401239 0.82361209 0.55872732 3 -0.96713185 -0.054164343 0.24844007 3 0.23488131 -0.56456137 0.79126573
3 0.26140538 0.92901719 -0.26190522 3 -0.76930451 0.036650822 -0.63783032 3 -0.58295625 0.36821702 0.72427779
3 0.26140538 0.92901719 -0.26190522 3 -0.76930451 0.036650822 -0.63783032 3 -0.58295625 0.36821702 0.72427779
3 0.13248739 0.89434701 -0.42730609 3 -0.84048223 -0.12714651 -0.52671003 3 -0.52539206 0.42892557 0.73483753
3 0.13248739 0.89434701 -0.42730609 3 -0.84048223 -0.12714651 -0.52671003 3 -0.52539206 0.42892557 0.73483753
3 -0.76385695 -0.35711986 -0.53757602 3 -0.041867614 0.85861862 -0.5109024 3 0.64402622 -0.3677493 -0.6708135
3 -0.76385695 -0.35711986 -0.53757602 3 -0.041867614 0.85861862 -0.5109024 3 0.64402622 -0.3677493 -0.6708135
3 0.51030731 0.85479033 -0.094445817 3 -0.76057708 0.39732879 -0.51347113 3 -0.40138417 0.33386123 0.85289365
3 0.51030731 0.85479033 -0.094445817 3 -0.76057708 0.39732879 -0.51347113 3 -0.40138417 0.33386123 0.85289365
3 0.34333059 -0.58505434 0.73473501 3 -0.7067278 -0.67616552 -0.20817341 3 0.6185953 -0.44778547 -0.64562231
3 0.34333059 -0.58505434 0.73473501 3 -0.7067278 -0.67616552 -0.20817341 3 0.6185953 -0.44778547 -0.64562231
3 -0.28233328 0.74604529 0.60307908 3 -0.93593895 -0.076278031 -0.34380212 3 -0.21049023 -0.66151208 0.71978861
3 -0.28233328 0.74604529 0.60307908 3 -0.93593895 -0.076278031 -0.34380212 3 -0.21049023 -0.66151208 0.71978861
3 0.86485612 0.42083034 0.27372563 3 -0.28707093 0.86187661 -0.41804183 3 -0.41184223 0.28296745 0.86620748
3 0.86485612 0.42083034 0.27372563 3 -0.28707093 0.86187661 -0.41804183 3 -0.41184223 0.28296745 0.86620748
3 -0.50678706 -0.68971848 0.51716077 3 -0.84145796 0.26536724 -0.47066855 3 0.18739119 -0.67369789 -0.7148537
3 -0.50678706 -0.68971848 0.51716077 3 -0.84145796 0.26536724 -0.47066855 3 0.18739119 -0.67369789 -0.7148537
3 -0.25785246 0.63753265 -0.7259919 3 0.80607361 0.55621964 0.20215118 3 0.53268892 -0.53307772 -0.65732086
3 -0.25785246 0.63753265 -0.7259919 3 0.80607361 0.55621964 0.20215118 3 0.53268892 -0.53307772 -0.65732086
3 0.73622775 0.53090817 0.41964912 3 0.20761731 -0.76740366 0.60661924 3 0.64409941 -0.35948336 -0.6752094
3 0.73622775 0.53090817 0.41964912 3 0.20761731 -0.76740366 0.60661924 3 0.64409941 -0.35948336 -0.6752094
3 0.08856345 0.99577051 -0.024445953 3 -0.89258569 0.068445548 -0.4456526 3 -0.4420945 0.061288707 0.89487225
3 0.08856345 0.99577051 -0.024445953 3 -0.89258569 0.068445548 -0.4456526 3 -0.4420945 0.061288707 0.89487225
3 -0.26667485 0.58776987 -0.76381361 3 -0.72784662 -0.64231241 -0.24015477 3 -0.63176256 0.49189579 0.59909481
3 -0.26667485 0.58776987 -0.76381361 3 -0.72784662 -0.64231241 -0.24015477 3 -0.63176256 0.49189579 0.59909481
3 -0.91320539 0.37699097 -0.15470544 3 0.16213837 0.6844483 0.71080357 3 0.37385437 0.62402594 -0.68616652
3 -0.91320539 0.37699097 -0.15470544 3 0.16213837 0.6844483 0.71080357 3 0.37385437 0.62402594 -0.68616652
3 -0.58241719 0.16029152 -0.79692966 3 0.32086262 0.9460938 -0.044201016 3 0.74688512 -0.28144836 -0.60245287
3 -0.58241719 0.16029152 -0.79692966 3 0.32086262 0.9460938 -0.044201016 3 0.74688512 -0.28144836 -0.60245287
3 -0.72034162 0.2911087 -0.62957424 3 -0.40856719 -0.91156983 0.045970827 3 -0.56051838 0.2903381 0.77557909
3 -0.72034162 0.2911087 -0.62957424 3 -0.40856719 -0.91156983 0.045970827 3 -0.56051838 0.2903381 0.77557909
3 0.35699603 0.77022535 -0.52849472 3 -0.8467266 0.027902007 -0.53129613 3 -0.3944717 0.6371612 0.66213125
3 0.35699603 0.77022535 -0.52849472 3 -0.8467266 0.027902007 -0.53129613 3 -0.3944717 0.6371612 0.66213125
3 -0.067006551 0.79231888 0.60641652 3 -0.88097817 0.23833708 -0.40874591 3 -0.46838862 -0.56162822 0.68204546
3 -0.067006551 0.79231888 0.60641652 3 -0.88097817 0.23833708 -0.40874591 3 -0.46838862 -0.56162822 0.68204546
3 -0.057068206 -0.89876485 0.43470106 3 0.83084565 0.19866927 0.51983273 3 -0.55356908 0.39083546 0.7353971
3 -0.057068206 -0.89876485 0.43470106 3 0.83084565 0.19866927 0.51983273 3 -0.55356908 0.39083546 0.7353971
3 0.32484907 0.61237454 0.72074306 3 -0.7159127 0.65719783 -0.23571184 3 -0.61801469 -0.43941832 0.65189677
3 0.32484907 0.61237454 0.72074306 3 -0.7159127 0.65719783 -0.23571184 3 -0.61801469 -0.43941832 0.65189677
3 -0.025744556 0.98375475 0.1776621 3 -0.74393773 0.099859342 -0.66074556 3 -0.6677528 -0.14918011 0.72928149
3 -0.025744556 0.98375475 0.1776621 3 -0.74393773 0.099859342 -0.66074556 3 -0.6677528 -0.14918011 0.72928149
3 0.14254655 0.81744587 0.5580886 3 -0.70128739 0.48131162 -0.52586651 3 -0.6984818 -0.31642005 0.6418736
3 0.14254655 0.81744587 0.5580886 3 -0.70128739 0.48131162 -0.52586651 3 -0.6984818 -0.31642005 0.6418736
3 -0.35946393 -0.54723322 -0.75585818 3 0.62261069 -0.74399358 0.24254805 3 -0.69508392 -0.38341802 0.60815209
3 -0.35946393 -0.54723322 -0.75585818 3 0.62261069 -0.74399358 0.24254805 3 -0.69508392 -0.38341802 0.60815209
0 0 0 1 0 0 0 1 0 0 0 1 0 0 0 0 0 226 1 0 0
